<svg

  version="1.1"
  x="0px"
  y="0px"
  viewBox="0 0 90 112.5"
  style="enable-background: new 0 0 90 90"
>
  <g>
    <path
      d="M45.27715,35c1.15002,0,2.09003-0.94,2.09003-2.09003c0-1.15997-0.94-2.09998-2.09003-2.09998   c-1.15997,0-2.09998,0.94-2.09998,2.09998C43.17718,34.06,44.11718,35,45.27715,35z"
    />
    <path
      d="M79.10717,70.48999c-0.09998-0.03003-0.20001-0.03998-0.29999-0.03998c0.13-8.54004-8.67999-22.90002-13.79999-27.28003   c2.16998-0.21002,3.78998-1,3.78998-1.96002c0.01001-0.87-1.32001-1.59998-3.19-1.89996   c0.04999-0.39001,0.07001-0.79004,0.09003-1.19c1.64996-1.45001,2.51996-3.04999,1.95996-3.84003   c-0.35999-0.5-1.22998-0.56-2.31-0.23999c-0.09998-0.45996-0.22998-0.91998-0.37-1.35999   c0.92999-1.03998,1.35004-2.04999,0.95001-2.59998c-0.32001-0.46002-1.15002-0.48004-2.15997-0.16003   c-0.61005-1.09998-1.33002-2.15002-2.17999-3.10999V8.20001L54.05718,21.56c-2.65997-1.09003-5.64001-1.69-8.78003-1.69   c-3.14996,0-6.12994,0.59998-8.78998,1.69L28.9572,8.20001V26.81c-0.85004,0.95996-1.57001,2.01001-2.17999,3.10999   c-1.01001-0.33002-1.83002-0.29999-2.16003,0.16003c-0.39001,0.54999,0.03003,1.56,0.96002,2.58997   c-0.17004,0.5-0.31,1.01001-0.42004,1.53003c-1.31-0.48004-2.39996-0.5-2.81,0.07996c-0.62,0.87,0.51001,2.75,2.53003,4.31   c0.02002,0.21002,0.02002,0.42999,0.03998,0.64001c-2.13995,0.23999-3.71997,1.03003-3.71997,1.97998   c0.01001,0.96002,1.62,1.75,3.79999,1.96002c-5.13,4.38-13.94,18.73999-13.81,27.28003c-0.09998,0-0.20001,0.00995-0.29999,0.03998   c-0.54004,0.15002-0.85004,0.71002-0.69,1.23999c0.14996,0.53003,0.67999,0.83002,1.20996,0.70001   c0.04004,0.16998,0.08002,0.33002,0.13,0.5c-0.50995,0.16998-0.79999,0.71002-0.64996,1.21997   C11.03716,74.69,11.59716,75,12.1372,74.84998c0.09998-0.02997,0.19-0.08002,0.26996-0.13   C12.5172,74.85999,12.62719,75,12.74718,75.14001c-0.23999,0.25-0.34998,0.62-0.25,0.97998   c0.15997,0.52997,0.71997,0.83997,1.25,0.69c0.28003-0.08002,0.5-0.27002,0.62-0.51001   c0.16998,0.08002,0.34003,0.15002,0.52002,0.21002c-0.06,0.19-0.06,0.38995-0.01001,0.58997   c0.15997,0.54004,0.71997,0.85004,1.25,0.69c0.40002-0.10999,0.67999-0.45996,0.71997-0.84998   c0.14001,0.01996,0.26001,0.03998,0.40002,0.03998c0.01001,0,0.01001,0,0.02002,0c0,0.08002,0.01001,0.16003,0.02997,0.23999   c0.16003,0.54004,0.71002,0.85004,1.25,0.69c0.48999-0.14001,0.79004-0.62,0.71002-1.12   c0.17999-0.04999,0.35999-0.10999,0.52997-0.17999C19.99718,77.02997,20.48717,77.25,20.9572,77.12   c0.52997-0.16003,0.83997-0.72003,0.69-1.25c-0.04004-0.13-0.10004-0.23999-0.17004-0.33002   c0.17999-0.16998,0.34003-0.34998,0.5-0.52997c0.23999,0.13995,0.53003,0.19995,0.81,0.12   c0.54004-0.16003,0.85004-0.72003,0.69-1.25c-0.06-0.23999-0.20996-0.42004-0.39996-0.54999c0.5-0.98004,1.19-3.19,1.90997-5.99005   c1.27002,3.46002,2.95001,6.56,4.81,8.74005c-2.37,1.09998-4.17999,3.17999-4.90997,5.71997h17.41998   c-0.47998-1.65002-1.40997-3.10999-2.65002-4.22998c1.21002-0.92004,2.5-1.85004,5.34003-1.85004   c2.84003,0.01001,4.03998,1.04999,5.14001,2.04999c-1.14001,1.09003-2,2.47003-2.44,4.03003h17.40997   c-0.69-2.40997-2.34998-4.40997-4.53998-5.53998c1.87-2.09003,3.44-5,4.60999-8.31c0.66003,2.51996,1.28003,4.46997,1.73999,5.38   c-0.19,0.12994-0.32996,0.31-0.39996,0.54999c-0.15002,0.52997,0.15997,1.08997,0.69,1.25   c0.28998,0.07996,0.57996,0.01996,0.81-0.12c0.15997,0.17999,0.32996,0.35999,0.5,0.52997   c-0.07001,0.09003-0.13,0.20001-0.17004,0.33002c-0.14996,0.52997,0.16003,1.08997,0.70001,1.25   c0.46002,0.13,0.95001-0.09003,1.16998-0.51001c0.17004,0.07001,0.34003,0.13,0.52002,0.17999   c-0.08002,0.5,0.22003,0.97998,0.71002,1.12c0.53998,0.16003,1.09998-0.14996,1.25-0.69   c0.01996-0.07996,0.02997-0.15997,0.03998-0.23999h0.01001c0.14001,0,0.27002-0.02002,0.40002-0.03998   c0.04999,0.39001,0.31995,0.73999,0.71997,0.84998c0.53998,0.16003,1.09998-0.14996,1.25-0.69   c0.06-0.20001,0.04999-0.39996-0.01001-0.58997c0.17999-0.06,0.35999-0.13,0.52002-0.21002   c0.13,0.23999,0.33997,0.42999,0.62,0.51001c0.53998,0.14996,1.09998-0.16003,1.25-0.69   c0.09998-0.35999-0.01001-0.72998-0.25-0.97998c0.12-0.14001,0.23999-0.28003,0.34998-0.42004   c0.08002,0.04999,0.17004,0.10004,0.26001,0.13c0.54004,0.15002,1.10004-0.15997,1.25-0.70001   c0.15002-0.50995-0.14001-1.04999-0.64001-1.21997c0.04004-0.16998,0.09003-0.33002,0.12006-0.5   c0.52997,0.13,1.06995-0.16998,1.21997-0.70001C79.95721,71.20001,79.64721,70.64001,79.10717,70.48999z M45.27715,26.95996   c3.28003,0,5.95001,2.66003,5.95001,5.95001c0,3.29004-2.66998,5.95001-5.95001,5.95001   c-3.28998,0-5.95996-2.65997-5.95996-5.95001C39.31719,29.62,41.98717,26.95996,45.27715,26.95996z M45.27715,50.12   c-9.07996,0-16.51996-5.96002-17.28998-13.56c3.38,5.20001,9.85004,8.70996,17.28998,8.70996   c7.43005,0,13.90002-3.50995,17.28003-8.70996C61.78716,44.15997,54.34716,50.12,45.27715,50.12z"
    />
  </g>
</svg>
